Coordinates
version=1
nRows=21
nColumns=27
inDegrees=yes

Units are S.I. units (second, meters, Newtons, ...)
If the header above contains a line with 'inDegrees', this indicates whether rotational values are in degrees (yes) or radians (no).

endheader
time	pelvis_rotation	pelvis_tilt	pelvis_list	pelvis_tx	pelvis_ty	pelvis_tz	hip_flexion_r	hip_adduction_r	hip_rotation_r	knee_angle_r	knee_rotation_r	knee_adduction_r	knee_angle_r_beta	ankle_angle_r	subtalar_angle_r	mtp_angle_r	hip_flexion_l	hip_adduction_l	hip_rotation_l	knee_angle_l	knee_rotation_l	knee_adduction_l	knee_angle_l_beta	ankle_angle_l	subtalar_angle_l	mtp_angle_l
      5.24500000	     14.14101604	    -41.72430361	      7.65005804	     -0.06881164	      0.64262383	     -1.18543402	    106.76852148	    -45.41239954	      3.03343942	     78.04425509	      0.00000000	      0.00000000	      1.36212921	      5.87803006	      0.00000000	      0.00000000	    105.26423527	    -20.35094313	      1.79965077	     71.24003885	      0.00000000	      0.00000000	      1.24337324	     -1.79404830	      0.00000000	      0.00000000
      5.25000000	     13.59202469	    -41.60867460	      7.51577060	     -0.06853537	      0.64306496	     -1.18518868	    106.58938916	    -44.83078933	      3.19507915	     77.96239305	      0.00000000	      0.00000000	      1.36070045	      5.93093287	      0.00000000	      0.00000000	    104.95302645	    -20.88808299	      1.57472088	     71.19518956	      0.00000000	      0.00000000	      1.24259047	     -1.75590320	      0.00000000	      0.00000000
      5.25500000	     14.16048289	    -41.68372409	      7.63591785	     -0.06802936	      0.64324909	     -1.18536855	    106.53568201	    -45.45509136	      2.89413773	     77.97408601	      0.00000000	      0.00000000	      1.36090453	      5.89583009	      0.00000000	      0.00000000	    105.10497403	    -20.35843266	      1.76612308	     71.15649366	      0.00000000	      0.00000000	      1.24191510	     -1.77115496	      0.00000000	      0.00000000
      5.26000000	     13.63822395	    -41.57120877	      7.50029297	     -0.06779176	      0.64371336	     -1.18512677	    106.34555082	    -44.89876365	      3.03346476	     77.88272915	      0.00000000	      0.00000000	      1.35931005	      5.94994977	      0.00000000	      0.00000000	    104.80330629	    -20.86589558	      1.55851401	     71.10242093	      0.00000000	      0.00000000	      1.24097135	     -1.75146271	      0.00000000	      0.00000000
      5.26500000	     14.18919409	    -41.62974999	      7.62097125	     -0.06731249	      0.64390920	     -1.18527962	    106.27879789	    -45.50346152	      2.74176431	     77.89410273	      0.00000000	      0.00000000	      1.35950856	      5.92375448	      0.00000000	      0.00000000	    104.93158862	    -20.35706708	      1.73212935	     71.05594005	      0.00000000	      0.00000000	      1.24016011	     -1.78446227	      0.00000000	      0.00000000
      5.27000000	     13.71257707	    -41.48884594	      7.47332084	     -0.06706641	      0.64437344	     -1.18506399	    106.03456039	    -45.01121517	      2.82932831	     77.79944066	      0.00000000	      0.00000000	      1.35785640	      5.96257106	      0.00000000	      0.00000000	    104.62050637	    -20.81256744	      1.55859356	     71.00109382	      0.00000000	      0.00000000	      1.23920286	     -1.74546265	      0.00000000	      0.00000000
      5.27500000	     14.24129375	    -41.55707925	      7.60769021	     -0.06662056	      0.64454543	     -1.18522642	    106.00627427	    -45.58182732	      2.57771469	     77.81432494	      0.00000000	      0.00000000	      1.35811618	      5.93461028	      0.00000000	      0.00000000	    104.75154056	    -20.33360393	      1.70525211	     70.96023592	      0.00000000	      0.00000000	      1.23848975	     -1.78767613	      0.00000000	      0.00000000
      5.28000000	     13.68690808	    -41.45382637	      7.47074988	     -0.06644083	      0.64498773	     -1.18497452	    105.84639933	    -44.98749560	      2.74880962	     77.72128102	      0.00000000	      0.00000000	      1.35649225	      5.97974139	      0.00000000	      0.00000000	    104.45622202	    -20.87922774	      1.47078872	     70.91117819	      0.00000000	      0.00000000	      1.23763354	     -1.75974296	      0.00000000	      0.00000000
      5.28500000	     14.22597778	    -41.50228988	      7.59454916	     -0.06598842	      0.64518077	     -1.18513514	    105.77816127	    -45.58267458	      2.46111736	     77.73295147	      0.00000000	      0.00000000	      1.35669594	      5.94517227	      0.00000000	      0.00000000	    104.56889541	    -20.38042530	      1.63712230	     70.86154573	      0.00000000	      0.00000000	      1.23676729	     -1.78274299	      0.00000000	      0.00000000
      5.29000000	     14.22060300	    -41.48863055	      7.60731085	     -0.06569259	      0.64545931	     -1.18509909	    105.71268895	    -45.58032528	      2.43649143	     77.70181764	      0.00000000	      0.00000000	      1.35615255	      5.93724069	      0.00000000	      0.00000000	    104.48947788	    -20.40840021	      1.58765883	     70.81983623	      0.00000000	      0.00000000	      1.23603932	     -1.77084624	      0.00000000	      0.00000000
      5.29500000	     13.66339312	    -41.36760431	      7.44581038	     -0.06550312	      0.64590584	     -1.18484361	    105.50960063	    -44.99732337	      2.56787112	     77.60756115	      0.00000000	      0.00000000	      1.35450747	      5.99130123	      0.00000000	      0.00000000	    104.18861098	    -20.94792463	      1.38018622	     70.77057432	      0.00000000	      0.00000000	      1.23517954	     -1.76258386	      0.00000000	      0.00000000
      5.30000000	     13.47766977	    -41.33901711	      7.35038364	     -0.06523605	      0.64625491	     -1.18477549	    105.35702708	    -44.82924458	      2.50595907	     77.54857602	      0.00000000	      0.00000000	      1.35347798	      5.98706676	      0.00000000	      0.00000000	    104.08297683	    -21.12431983	      1.33400396	     70.72996819	      0.00000000	      0.00000000	      1.23447082	     -1.76324752	      0.00000000	      0.00000000
      5.30500000	     14.20854255	    -41.43363141	      7.56636730	     -0.06479057	      0.64634881	     -1.18499131	    105.38338129	    -45.60837971	      2.21515161	     77.58243257	      0.00000000	      0.00000000	      1.35406889	      5.95560091	      0.00000000	      0.00000000	    104.27991601	    -20.45767623	      1.53507132	     70.68962789	      0.00000000	      0.00000000	      1.23376675	     -1.81412330	      0.00000000	      0.00000000
      5.31000000	     14.20241241	    -41.35982544	      7.54085451	     -0.06444800	      0.64667064	     -1.18497574	    105.19461778	    -45.63534434	      2.11338869	     77.53031123	      0.00000000	      0.00000000	      1.35315920	      5.96138542	      0.00000000	      0.00000000	    104.14802031	    -20.46409976	      1.52080387	     70.64237711	      0.00000000	      0.00000000	      1.23294207	     -1.80919907	      0.00000000	      0.00000000
      5.31500000	     13.48679984	    -41.23332772	      7.34565551	     -0.06427840	      0.64711555	     -1.18469942	    105.02473953	    -44.89839699	      2.31897350	     77.43863151	      0.00000000	      0.00000000	      1.35155909	      6.00289024	      0.00000000	      0.00000000	    103.80696790	    -21.14963176	      1.25723730	     70.60723677	      0.00000000	      0.00000000	      1.23232876	     -1.78838431	      0.00000000	      0.00000000
      5.32000000	     14.17941211	    -41.30066620	      7.51760472	     -0.06381772	      0.64725679	     -1.18494343	    104.96719269	    -45.65435606	      1.97573806	     77.44741826	      0.00000000	      0.00000000	      1.35171245	      5.94549714	      0.00000000	      0.00000000	    103.97482822	    -20.49772923	      1.48130633	     70.56092997	      0.00000000	      0.00000000	      1.23152055	     -1.79612805	      0.00000000	      0.00000000
      5.32500000	     14.17321963	    -41.27107156	      7.48609901	     -0.06351571	      0.64757368	     -1.18493231	    104.82397181	    -45.67502990	      1.86634993	     77.40238365	      0.00000000	      0.00000000	      1.35092644	      5.94791176	      0.00000000	      0.00000000	    103.89436738	    -20.50102441	      1.48309560	     70.51433902	      0.00000000	      0.00000000	      1.23070739	     -1.80139626	      0.00000000	      0.00000000
      5.33000000	     14.13763737	    -41.25637004	      7.46803112	     -0.06320526	      0.64785793	     -1.18491364	    104.72785703	    -45.65780849	      1.80880685	     77.36142242	      0.00000000	      0.00000000	      1.35021154	      5.94950475	      0.00000000	      0.00000000	    103.81985973	    -20.53550201	      1.46620155	     70.47647448	      0.00000000	      0.00000000	      1.23004652	     -1.79734268	      0.00000000	      0.00000000
      5.33500000	     14.10238932	    -41.25424304	      7.45023528	     -0.06289829	      0.64817085	     -1.18490851	    104.64462055	    -45.64160070	      1.74599931	     77.31746262	      0.00000000	      0.00000000	      1.34944429	      5.93126994	      0.00000000	      0.00000000	    103.75457333	    -20.56835228	      1.44902144	     70.43697364	      0.00000000	      0.00000000	      1.22935711	     -1.78285033	      0.00000000	      0.00000000
      5.34000000	     14.07844130	    -41.21679202	      7.42595222	     -0.06257036	      0.64850636	     -1.18490801	    104.50241122	    -45.64702176	      1.65640763	     77.26708760	      0.00000000	      0.00000000	      1.34856508	      5.93800180	      0.00000000	      0.00000000	    103.65378145	    -20.58300538	      1.43957350	     70.39099932	      0.00000000	      0.00000000	      1.22855470	     -1.77748196	      0.00000000	      0.00000000
      5.34500000	     13.39248708	    -41.10062090	      7.25500694	     -0.06238829	      0.64901340	     -1.18466640	    104.34797881	    -44.93177968	      1.87511327	     77.15776379	      0.00000000	      0.00000000	      1.34665702	      5.98172113	      0.00000000	      0.00000000	    103.30510269	    -21.22426438	      1.18320714	     70.33385646	      0.00000000	      0.00000000	      1.22755737	     -1.74826583	      0.00000000	      0.00000000
